<?xml version="1.0" encoding="UTF-8" standalone="no"?>
<svg
   xmlns:dc="http://purl.org/dc/elements/1.1/"
   xmlns:cc="http://creativecommons.org/ns#"
   xmlns:rdf="http://www.w3.org/1999/02/22-rdf-syntax-ns#"
   xmlns:svg="http://www.w3.org/2000/svg"
   xmlns="http://www.w3.org/2000/svg"
   width="46.158474mm"
   height="60.325001mm"
   viewBox="0 0 46.158474 60.325001"
   version="1.1">
   <g
      transform="translate(-23.910732,-217.61789)">
      <path
         style="fill:#000000;stroke-width:0.264583"
         d="m 40.607791,277.93485 c -3.12088,-0.005 -5.54978,-0.11989 -5.81759,-0.27592 -0.25288,-0.14733 -0.58303,-0.49818 -0.73368,-0.77966 -0.19928,-0.37237 -0.16862,-0.76377 0.11255,-1.43671 0.38646,-0.92492 0.38646,-0.92492 4.30556,-0.99823 3.9191,-0.0733 3.9191,-0.0733 3.99237,-3.66007 0.0733,-3.58675 0.0733,-3.58675 -1.98437,-4.73569 -1.13171,-0.63192 -2.52481,-1.44426 -3.09578,-1.80521 -0.57097,-0.36096 -1.70207,-1.01524 -2.51354,-1.45398 -0.81148,-0.43873 -1.62557,-0.91528 -1.80909,-1.05901 -0.18352,-0.14373 -0.7193,-0.48279 -1.19062,-0.75348 -0.471329,-0.2707 -1.516551,-0.83942 -2.32272,-1.26383 -0.80617,-0.42441 -2.080128,-1.32403 -2.83102,-1.99914 -0.810494,-0.72871 -1.639566,-1.80733 -2.040325,-2.65446 -0.675067,-1.42698 -0.675067,-1.42698 -0.740855,-11.8275 -0.06553,-10.35992 -0.06338,-10.4065 0.552367,-11.93212 0.38565,-0.95552 1.10118,-2.01463 1.902362,-2.81581 0.706313,-0.70631 1.916425,-1.63487 2.689136,-2.06346 0.772712,-0.42859 3.012275,-1.7046 4.976805,-2.83558 1.96453,-1.13098 4.64344,-2.68848 5.95313,-3.46111 1.30968,-0.77262 3.01073,-1.65254 3.7801,-1.95538 0.89166,-0.35096 2.00179,-0.55061 3.06172,-0.55061 0.91458,0 2.24962,0.19962 2.96677,0.44359 0.71715,0.24397 1.89922,0.78202 2.62682,1.19566 0.72761,0.41365 1.50151,0.86249 1.71979,0.99743 0.21829,0.13494 0.99219,0.56271 1.7198,0.95061 0.7276,0.38789 1.50151,0.85301 1.71979,1.03361 0.21828,0.18059 1.64703,1.01786 3.175,1.86061 1.52797,0.84274 3.43093,1.89625 4.22881,2.34113 0.79787,0.44487 1.95187,1.32454 2.56442,1.95481 0.61256,0.63028 1.41699,1.76718 1.78762,2.52644 0.673882,1.38049 0.673882,1.38049 0.698992,11.85437 0.0251,10.47387 0.0251,10.47387 -0.744422,12.17083 -0.52211,1.15134 -1.19774,2.07977 -2.10134,2.88758 -0.7325,0.65484 -2.00704,1.54781 -2.83232,1.98437 -0.82528,0.43657 -1.85281,0.98636 -2.2834,1.22176 -0.43059,0.23541 -0.93314,0.54569 -1.11678,0.68951 -0.18363,0.14382 -0.98872,0.61971 -1.78908,1.05753 -0.80037,0.43782 -2.5064,1.40746 -3.79118,2.15476 -1.28478,0.74731 -2.41588,1.3627 -2.51354,1.36754 -0.0977,0.005 -0.44546,0.23228 -0.77289,0.50543 -0.56379,0.47034 -0.59531,0.68699 -0.59531,4.09224 0,3.59561 0,3.59561 3.98152,3.59561 3.98153,0 3.98153,0 4.3409,0.8547 0.30325,0.72121 0.30278,0.96416 -0.003,1.55544 -0.1993,0.3854 -0.5551,0.77469 -0.79066,0.86509 -0.23556,0.0904 -2.79981,0.16435 -5.69833,0.16435 -2.89851,0 -5.27424,-0.0893 -5.2794,-0.19844 -0.005,-0.10914 -0.0513,-4.54421 -0.10258,-9.85572 -0.0733,-7.5951 -0.0171,-9.88329 0.26328,-10.71563 0.19606,-0.58208 0.74823,-1.39734 1.22705,-1.81168 0.47882,-0.41433 2.35887,-1.58436 4.17788,-2.60004 1.81901,-1.01569 3.43801,-2.01413 3.59778,-2.21877 0.15978,-0.20463 0.31439,-1.19028 0.34359,-2.19033 0.0531,-1.81827 0.0531,-1.81827 -1.24641,-2.80929 -0.71473,-0.54506 -1.49443,-1.39976 -1.73265,-1.89933 -0.23823,-0.49957 -0.43315,-1.5034 -0.43315,-2.23074 0,-0.72734 0.1604,-1.70557 0.35643,-2.17384 0.19604,-0.46827 0.83335,-1.28173 1.41625,-1.8077 0.76586,-0.69105 1.407,-1.00837 2.3115,-1.144 0.68842,-0.10324 1.7287,-0.10711 2.31174,-0.009 0.74282,0.12549 1.39447,0.50746 2.17742,1.27629 0.63689,0.62541 1.26695,1.56969 1.46527,2.19604 0.21269,0.67175 0.28038,1.5492 0.17416,2.25757 -0.0956,0.63731 -0.40661,1.54162 -0.69119,2.00957 -0.28458,0.46796 -0.99102,1.17845 -1.56987,1.57888 -1.05246,0.72805 -1.05246,0.72805 -1.06349,3.2416 -0.009,1.99531 -0.11528,2.68451 -0.51668,3.34279 -0.27811,0.45608 -0.90274,1.12155 -1.38807,1.47882 -0.48533,0.35726 -2.40047,1.52701 -4.25586,2.59944 -3.37344,1.94987 -3.37344,1.94987 -3.37344,4.27586 0,1.2793 0.0613,2.326 0.1363,2.326 0.075,0 0.81911,-0.38614 1.65365,-0.85809 0.83454,-0.47196 1.83391,-1.0375 2.22083,-1.25677 0.38692,-0.21928 1.39895,-0.78782 2.24896,-1.26343 0.85001,-0.47561 2.14078,-1.21726 2.86839,-1.6481 0.7276,-0.43084 1.79916,-1.03707 2.38125,-1.34717 0.58208,-0.3101 1.39665,-0.87815 1.81016,-1.26232 0.41351,-0.38417 1.00883,-1.17474 1.32292,-1.75683 0.557,-1.03224 0.57005,-1.29055 0.52932,-10.47786 -0.0418,-9.41954 -0.0418,-9.41954 -0.71384,-10.74581 -0.55493,-1.09511 -1.03041,-1.55158 -2.72808,-2.619 -1.1308,-0.71101 -2.24695,-1.37038 -2.48032,-1.46527 -0.23337,-0.0949 -1.1896,-0.6384 -2.12494,-1.20779 -0.93535,-0.56939 -1.87923,-1.11921 -2.09752,-1.22182 -0.21828,-0.10261 -0.83727,-0.45207 -1.37554,-0.77658 -0.53826,-0.32452 -2.20514,-1.26389 -3.70416,-2.08749 -1.58947,-0.87329 -3.22178,-1.56926 -3.91613,-1.66971 -0.78515,-0.11359 -1.56575,-0.0384 -2.29214,0.22085 -0.60583,0.2162 -2.90618,1.47359 -5.11189,2.79419 -2.20571,1.3206 -4.06407,2.40109 -4.12968,2.40109 -0.0656,0 -0.56323,0.27908 -1.10582,0.62018 -0.54258,0.34111 -2.14847,1.29973 -3.56864,2.13028 -2.294638,1.34196 -2.662867,1.66324 -3.307291,2.88555 -0.725164,1.37544 -0.725164,1.37544 -0.712438,10.76815 0.01116,8.24023 0.0668,9.49433 0.453413,10.22089 0.242378,0.4555 0.756917,1.20399 1.143418,1.66332 0.386502,0.45933 1.075435,1.00914 1.530962,1.2218 0.455527,0.21265 1.185416,0.62123 1.621986,0.90796 0.43656,0.28673 1.21046,0.73926 1.71979,1.00563 0.50932,0.26637 1.81901,1.01285 2.91041,1.65885 1.09141,0.64599 2.18651,1.29504 2.43356,1.44231 0.24705,0.14728 1.04853,0.59521 1.78107,0.99539 0.73254,0.40018 1.39361,0.7276 1.46905,0.7276 0.0754,0 0.13716,-1.06447 0.13716,-2.3655 0,-2.3655 0,-2.3655 -2.18281,-3.61557 -1.20055,-0.68753 -2.89719,-1.63975 -3.77032,-2.11603 -0.87312,-0.47629 -2.00422,-1.29636 -2.51354,-1.82239 -0.92604,-0.95643 -0.92604,-0.95643 -1.01574,-3.85823 -0.0876,-2.83479 -0.10596,-2.91026 -0.79375,-3.26815 -0.38723,-0.20149 -0.966259,-0.64718 -1.286736,-0.99041 -0.320476,-0.34324 -0.766961,-1.0651 -0.992187,-1.60414 -0.225227,-0.53905 -0.409503,-1.35704 -0.409503,-1.81778 0,-0.46073 0.140541,-1.30678 0.312314,-1.88011 0.196351,-0.65536 0.736521,-1.41581 1.454792,-2.04806 0.62836,-0.55311 1.51474,-1.0801 1.96972,-1.1711 0.45498,-0.091 1.2329,-0.16544 1.7287,-0.16544 0.49581,0 1.2846,0.16039 1.75287,0.35642 0.46827,0.19604 1.28919,0.84161 1.82428,1.43461 0.69517,0.7704 1.02466,1.42343 1.15426,2.28764 0.0998,0.6652 0.0982,1.65263 -0.003,2.19427 -0.10161,0.54165 -0.34485,1.29441 -0.54053,1.67282 -0.19568,0.3784 -0.84249,1.02529 -1.43736,1.43753 -0.59487,0.41224 -1.14371,0.99973 -1.21966,1.30552 -0.0759,0.30578 -0.0858,1.21082 -0.0218,2.01119 0.0639,0.80036 0.12826,1.53432 0.14292,1.63102 0.0147,0.0967 0.53266,0.46594 1.15112,0.82054 0.61846,0.3546 1.88006,1.07916 2.80354,1.61013 0.92349,0.53096 1.72716,0.96539 1.78594,0.96539 0.0588,0 0.10687,-3.45281 0.10687,-7.67292 0,-5.05068 -0.0924,-7.67291 -0.27049,-7.67291 -0.14878,0 -0.78849,-0.47747 -1.42158,-1.06104 -0.78395,-0.72261 -1.25626,-1.43669 -1.48086,-2.23885 -0.19057,-0.68066 -0.2574,-1.66037 -0.15833,-2.32103 0.0943,-0.62876 0.38637,-1.4965 0.64908,-1.92833 0.26271,-0.43182 0.97582,-1.13023 1.5847,-1.55203 0.74465,-0.51586 1.55222,-0.80968 2.46695,-0.89757 0.99913,-0.096 1.61203,-0.002 2.31032,0.35566 0.52273,0.26749 1.28847,0.79046 1.70165,1.16216 0.41317,0.3717 0.91919,0.99733 1.12448,1.39028 0.20528,0.39296 0.37325,1.4213 0.37325,2.28521 0,1.3329 -0.1302,1.76473 -0.8599,2.85197 -0.47294,0.70469 -1.14387,1.42175 -1.49095,1.59348 -0.34708,0.17173 -0.73117,0.47183 -0.85355,0.66689 -0.12237,0.19506 -0.21156,5.53387 -0.1982,11.86403 0.0134,6.33015 0.0105,15.05148 -0.006,19.38073 -0.0306,7.87135 -0.0306,7.87135 -5.38845,7.86331 z m -5.91212,-34.92101 c 0.30487,-0.002 0.68531,-0.0915 0.84543,-0.19844 0.16011,-0.10691 0.42189,-0.44302 0.58172,-0.74692 0.15984,-0.30389 0.21787,-0.83968 0.12897,-1.19062 -0.0889,-0.35095 -0.29115,-0.72557 -0.44944,-0.83248 -0.15828,-0.10691 -0.66017,-0.19621 -1.11529,-0.19844 -0.45512,-0.002 -0.97602,0.17491 -1.15755,0.39364 -0.18153,0.21873 -0.33005,0.69893 -0.33005,1.0671 0,0.36818 0.21192,0.90359 0.47095,1.18981 0.25903,0.28622 0.72039,0.51858 1.02526,0.51635 z m 24.73751,-0.0597 c 0.34942,-0.0377 0.86848,-0.3823 1.15347,-0.76578 0.46312,-0.62315 0.47958,-0.77778 0.1549,-1.45521 -0.31869,-0.66491 -0.50669,-0.75797 -1.53131,-0.75797 -1.06544,0 -1.18606,0.0674 -1.37334,0.76772 -0.12281,0.45918 -0.088,0.99083 0.0867,1.32291 0.16062,0.30536 0.42304,0.64558 0.58315,0.75604 0.16012,0.11046 0.57701,0.16999 0.92641,0.13229 z m -15.44997,-7.60916 c 0.19824,0 0.65076,-0.11038 1.0056,-0.24529 0.37129,-0.14117 0.72067,-0.54616 0.82305,-0.95406 0.11538,-0.45972 0.032,-0.93135 -0.23716,-1.34221 -0.27155,-0.41445 -0.66449,-0.63204 -1.13655,-0.62939 -0.39683,0.002 -0.86289,0.0939 -1.03568,0.20382 -0.1728,0.10987 -0.43459,0.51647 -0.58176,0.90355 -0.2172,0.57129 -0.1669,0.83176 0.26724,1.38368 0.29414,0.37394 0.69701,0.6799 0.89526,0.6799 z"
         id="path3040" />
   </g>
</svg>